<svg xmlns="http://www.w3.org/2000/svg" width="1040" height="500" viewBox="0 0 1040 500" role="img" aria-labelledby="title desc">
  <title id="title">Azure ML Environment Taxonomy</title>
  <desc id="desc">One versioned environment combining a base image and pinned dependencies is reused by both a training job and an inference deployment to prevent training/serving skew.</desc>
  <defs>
    <style>
      .bg { fill: #f7fafc; }
      .title { fill: #0f172a; font-family: Segoe UI, Arial, sans-serif; font-size: 28px; font-weight: 700; }
      .subtitle { fill: #334155; font-family: Segoe UI, Arial, sans-serif; font-size: 15px; }
      .card { fill: #ffffff; stroke: #cbd5e1; stroke-width: 1.5; }
      .cardhead { font-family: Segoe UI, Arial, sans-serif; font-size: 18px; font-weight: 700; }
      .node { font-family: Segoe UI, Arial, sans-serif; font-size: 14px; font-weight: 700; fill: #ffffff; }
      .label { font-family: Segoe UI, Arial, sans-serif; font-size: 13px; fill: #1f2937; }
      .desc2 { font-family: Segoe UI, Arial, sans-serif; font-size: 13px; fill: #475569; }
      .arrow { stroke: #475569; stroke-width: 2.5; fill: none; }
      .sub { fill: #f1f5f9; stroke: #cbd5e1; stroke-width: 1; }
      .subt { font-family: Segoe UI, Arial, sans-serif; font-size: 13px; font-weight: 700; fill: #0f172a; }
    </style>
    <marker id="ah" markerWidth="9" markerHeight="9" refX="7" refY="4.5" orient="auto">
      <path d="M0,0 L9,4.5 L0,9 z" fill="#475569"/>
    </marker>
  </defs>
  <rect class="bg" x="0" y="0" width="1040" height="500"/>
  <text class="title" x="60" y="52">Azure ML Environment Taxonomy</text>
  <text class="subtitle" x="60" y="80">Define the runtime once, reuse it everywhere — eliminate training/serving skew</text>

  <!-- Environment -->
  <rect class="card" x="60" y="150" width="360" height="240" rx="12"/>
  <rect x="60" y="150" width="360" height="48" rx="12" fill="#004a99"/>
  <text class="node" x="240" y="181" text-anchor="middle">Environment (versioned: v3)</text>
  <rect class="sub" x="84" y="222" width="312" height="64" rx="8"/>
  <text class="subt" x="100" y="248">Base Image</text>
  <text class="desc2" x="100" y="270">Curated CUDA / Ubuntu + Python runtime</text>
  <rect class="sub" x="84" y="300" width="312" height="64" rx="8"/>
  <text class="subt" x="100" y="326">Pinned Dependencies</text>
  <text class="desc2" x="100" y="348">Exact conda / pip versions — fully reproducible</text>

  <!-- Training Job -->
  <rect class="card" x="700" y="150" width="280" height="100" rx="12"/>
  <rect x="700" y="150" width="280" height="44" rx="12" fill="#0e7490"/>
  <text class="node" x="840" y="179" text-anchor="middle">Training Job</text>
  <text class="desc2" x="724" y="222">Fit the model on the cluster</text>
  <text class="desc2" x="724" y="240">using this exact runtime.</text>

  <!-- Inference -->
  <rect class="card" x="700" y="290" width="280" height="100" rx="12"/>
  <rect x="700" y="290" width="280" height="44" rx="12" fill="#15803d"/>
  <text class="node" x="840" y="319" text-anchor="middle">Inference / Serving</text>
  <text class="desc2" x="724" y="362">Online deployment scores with</text>
  <text class="desc2" x="724" y="380">the identical runtime.</text>

  <!-- arrows -->
  <path class="arrow" d="M420,255 C560,255 560,200 695,200" marker-end="url(#ah)"/>
  <path class="arrow" d="M420,285 C560,285 560,340 695,340" marker-end="url(#ah)"/>
  <text class="label" x="500" y="205">reuse</text>
  <text class="label" x="500" y="360">reuse</text>

  <!-- footnote -->
  <text class="desc2" x="60" y="430">Same image + same dependencies in training and serving = identical preprocessing and behavior in production.</text>
</svg>
