<svg xmlns="http://www.w3.org/2000/svg" width="1040" height="600" viewBox="0 0 1040 600" role="img" aria-labelledby="title desc">
  <title id="title">Bayes' theorem with the medical-test example</title>
  <desc id="desc">A tree splitting 1000 people into 1 percent diseased and 99 percent healthy, showing that a 99 percent accurate test yields roughly equal numbers of true and false positives, so the posterior probability of disease given a positive test is about 50 percent.</desc>
  <defs>
    <style>
      .bg { fill: #f7fafc; }
      .title { fill: #0f172a; font-family: Segoe UI, Arial, sans-serif; font-size: 28px; font-weight: 700; }
      .subtitle { fill: #334155; font-family: Segoe UI, Arial, sans-serif; font-size: 15px; }
      .card { stroke: #cbd5e1; stroke-width: 1.5; }
      .node { font-family: Segoe UI, Arial, sans-serif; font-size: 15px; font-weight: 700; fill: #ffffff; }
      .count { font-family: Segoe UI, Arial, sans-serif; font-size: 13px; fill: #ffffff; }
      .label { font-family: Segoe UI, Arial, sans-serif; font-size: 13px; fill: #1f2937; }
      .desc2 { font-family: Segoe UI, Arial, sans-serif; font-size: 13px; fill: #475569; }
      .panel { fill: #ffffff; stroke: #cbd5e1; stroke-width: 1.5; }
      .arrow { stroke: #475569; stroke-width: 2.5; fill: none; }
      .formula { font-family: Segoe UI, Arial, sans-serif; font-size: 16px; fill: #0f172a; }
    </style>
    <marker id="ah" markerWidth="9" markerHeight="9" refX="7" refY="4.5" orient="auto">
      <path d="M0,0 L9,4.5 L0,9 z" fill="#475569"/>
    </marker>
  </defs>
  <rect class="bg" x="0" y="0" width="1040" height="600"/>
  <text class="title" x="60" y="52">Bayes' theorem: the medical-test trap</text>
  <text class="subtitle" x="60" y="80">A 99% accurate test for a rare disease still leaves only a ~50% chance of being sick after a positive result.</text>

  <!-- connectors -->
  <path class="arrow" d="M220,305 C255,305 260,186 286,186" marker-end="url(#ah)"/>
  <path class="arrow" d="M220,305 C255,305 260,436 286,436" marker-end="url(#ah)"/>
  <path class="arrow" d="M480,186 C515,186 520,140 546,140" marker-end="url(#ah)"/>
  <path class="arrow" d="M480,186 C515,186 520,230 546,230" marker-end="url(#ah)"/>
  <path class="arrow" d="M480,436 C515,436 520,390 546,390" marker-end="url(#ah)"/>
  <path class="arrow" d="M480,436 C515,436 520,480 546,480" marker-end="url(#ah)"/>

  <!-- edge labels -->
  <text class="desc2" x="252" y="232">prior 1%</text>
  <text class="desc2" x="252" y="392">prior 99%</text>
  <text class="label" x="512" y="118">99%</text>
  <text class="label" x="512" y="262">1%</text>
  <text class="label" x="512" y="368">1%</text>
  <text class="label" x="512" y="512">99%</text>

  <!-- root -->
  <rect class="card" x="70" y="270" width="150" height="70" rx="10" fill="#334155"/>
  <text class="node" x="145" y="300" text-anchor="middle">Population</text>
  <text class="count" x="145" y="322" text-anchor="middle">1000 people</text>

  <!-- level 2 -->
  <rect class="card" x="290" y="150" width="190" height="72" rx="10" fill="#004a99"/>
  <text class="node" x="385" y="180" text-anchor="middle">Diseased — 1%</text>
  <text class="count" x="385" y="202" text-anchor="middle">10 people</text>

  <rect class="card" x="290" y="400" width="190" height="72" rx="10" fill="#0e7490"/>
  <text class="node" x="385" y="430" text-anchor="middle">Healthy — 99%</text>
  <text class="count" x="385" y="452" text-anchor="middle">990 people</text>

  <!-- level 3 -->
  <rect class="card" x="550" y="110" width="230" height="60" rx="10" fill="#b91c1c"/>
  <text class="node" x="665" y="136" text-anchor="middle">Test + : true positives</text>
  <text class="count" x="665" y="156" text-anchor="middle">≈ 10</text>

  <rect class="card" x="550" y="200" width="230" height="60" rx="10" fill="#64748b"/>
  <text class="node" x="665" y="226" text-anchor="middle">Test − : false negatives</text>
  <text class="count" x="665" y="246" text-anchor="middle">≈ 0</text>

  <rect class="card" x="550" y="360" width="230" height="60" rx="10" fill="#b45309"/>
  <text class="node" x="665" y="386" text-anchor="middle">Test + : false positives</text>
  <text class="count" x="665" y="406" text-anchor="middle">≈ 10</text>

  <rect class="card" x="550" y="450" width="230" height="60" rx="10" fill="#15803d"/>
  <text class="node" x="665" y="476" text-anchor="middle">Test − : true negatives</text>
  <text class="count" x="665" y="496" text-anchor="middle">≈ 980</text>

  <!-- result panel -->
  <rect class="panel" x="815" y="150" width="190" height="320" rx="10"/>
  <text class="label" x="910" y="182" text-anchor="middle" font-weight="700">Among ~20 positives</text>
  <rect x="835" y="205" width="75" height="44" fill="#b91c1c"/>
  <rect x="910" y="205" width="75" height="44" fill="#b45309"/>
  <text class="count" x="872" y="232" text-anchor="middle">10 sick</text>
  <text class="count" x="947" y="232" text-anchor="middle">10 well</text>
  <text class="desc2" x="910" y="278" text-anchor="middle">Half of all positives</text>
  <text class="desc2" x="910" y="298" text-anchor="middle">are actually healthy.</text>
  <text class="title" x="910" y="360" text-anchor="middle" font-size="22">P(D | +)</text>
  <text class="title" x="910" y="400" text-anchor="middle" font-size="30" fill="#b91c1c">≈ 50%</text>
  <text class="desc2" x="910" y="440" text-anchor="middle">Base rate dominates</text>

  <!-- formula -->
  <rect class="panel" x="60" y="535" width="945" height="46" rx="10"/>
  <text class="formula" x="80" y="564">posterior = (likelihood × prior) / evidence</text>
  <text class="formula" x="540" y="564">P(D|+) = (0.99 × 0.01) / 0.0198 ≈ 0.50</text>
</svg>
