<svg xmlns="http://www.w3.org/2000/svg" width="1040" height="460" viewBox="0 0 1040 460" role="img" aria-labelledby="title desc">
  <title id="title">El bucle de búsqueda de AutoML</title>
  <desc id="desc">Un bucle que prueba un algoritmo e hiperparámetros, entrena, evalúa con validación cruzada y clasifica por la métrica principal hasta agotar el presupuesto fijo de búsqueda, produciendo el mejor modelo o ensamble.</desc>
  <defs>
    <style>
      .bg { fill: #f7fafc; }
      .title { fill: #0f172a; font-family: Segoe UI, Arial, sans-serif; font-size: 28px; font-weight: 700; }
      .subtitle { fill: #334155; font-family: Segoe UI, Arial, sans-serif; font-size: 15px; }
      .card { fill: #ffffff; stroke: #cbd5e1; stroke-width: 1.5; }
      .num { fill: #ffffff; font-family: Segoe UI, Arial, sans-serif; font-size: 15px; font-weight: 700; }
      .nodehead { font-family: Segoe UI, Arial, sans-serif; font-size: 14px; font-weight: 700; }
      .desc2 { font-family: Segoe UI, Arial, sans-serif; font-size: 12px; fill: #475569; }
      .arrow { stroke: #475569; stroke-width: 2.5; fill: none; }
      .loop { stroke: #b45309; stroke-width: 2.5; fill: none; stroke-dasharray: 7 5; }
      .looptxt { font-family: Segoe UI, Arial, sans-serif; font-size: 13px; font-weight: 700; fill: #b45309; }
      .budtxt { font-family: Segoe UI, Arial, sans-serif; font-size: 13px; font-weight: 700; fill: #334155; }
    </style>
    <marker id="ah" markerWidth="9" markerHeight="9" refX="7" refY="4.5" orient="auto">
      <path d="M0,0 L9,4.5 L0,9 z" fill="#475569"/>
    </marker>
    <marker id="aho" markerWidth="9" markerHeight="9" refX="7" refY="4.5" orient="auto">
      <path d="M0,0 L9,4.5 L0,9 z" fill="#b45309"/>
    </marker>
  </defs>
  <rect class="bg" x="0" y="0" width="1040" height="460"/>
  <text class="title" x="60" y="52">El bucle de búsqueda de AutoML</text>
  <text class="subtitle" x="60" y="80">Gasta un presupuesto fijo entre algoritmos conocidos y conserva el mejor modelo o ensamble.</text>

  <!-- presupuesto -->
  <text class="budtxt" x="60" y="129">Presupuesto</text>
  <rect x="195" y="112" width="480" height="22" rx="6" fill="#ffffff" stroke="#cbd5e1"/>
  <rect x="197" y="114" width="40" height="18" rx="3" fill="#b45309"/>
  <rect x="239" y="114" width="40" height="18" rx="3" fill="#b45309"/>
  <rect x="281" y="114" width="40" height="18" rx="3" fill="#b45309"/>
  <rect x="323" y="114" width="40" height="18" rx="3" fill="#b45309"/>
  <rect x="365" y="114" width="40" height="18" rx="3" fill="#b45309"/>
  <rect x="407" y="114" width="40" height="18" rx="3" fill="#fcd9b0"/>
  <rect x="449" y="114" width="40" height="18" rx="3" fill="#fcd9b0"/>
  <rect x="491" y="114" width="40" height="18" rx="3" fill="#fcd9b0"/>
  <rect x="533" y="114" width="40" height="18" rx="3" fill="#fcd9b0"/>
  <rect x="575" y="114" width="40" height="18" rx="3" fill="#fcd9b0"/>
  <rect x="617" y="114" width="56" height="18" rx="3" fill="#fcd9b0"/>
  <text class="budtxt" x="690" y="129">cada celda = una prueba</text>

  <!-- flechas entre nodos -->
  <line class="arrow" x1="237" y1="235" x2="253" y2="235" marker-end="url(#ah)"/>
  <line class="arrow" x1="432" y1="235" x2="448" y2="235" marker-end="url(#ah)"/>
  <line class="arrow" x1="627" y1="235" x2="643" y2="235" marker-end="url(#ah)"/>
  <line class="arrow" x1="822" y1="235" x2="838" y2="235" marker-end="url(#ah)"/>

  <!-- Nodo 1 -->
  <rect class="card" x="60" y="178" width="177" height="118" rx="10"/>
  <circle cx="95" cy="205" r="14" fill="#004a99"/>
  <text class="num" x="95" y="210" text-anchor="middle">1</text>
  <text class="nodehead" x="148" y="210" text-anchor="middle" fill="#004a99">Probar algoritmo</text>
  <text class="nodehead" x="148" y="228" text-anchor="middle" fill="#004a99">+ hiperparámetros</text>
  <text class="desc2" x="148" y="256" text-anchor="middle">Elige un candidato del</text>
  <text class="desc2" x="148" y="273" text-anchor="middle">conjunto conocido.</text>

  <!-- Nodo 2 -->
  <rect class="card" x="255" y="178" width="177" height="118" rx="10"/>
  <circle cx="290" cy="205" r="14" fill="#0e7490"/>
  <text class="num" x="290" y="210" text-anchor="middle">2</text>
  <text class="nodehead" x="343" y="216" text-anchor="middle" fill="#0e7490">Entrenar</text>
  <text class="desc2" x="343" y="248" text-anchor="middle">Ajusta el candidato en</text>
  <text class="desc2" x="343" y="265" text-anchor="middle">los pliegues de entreno.</text>

  <!-- Nodo 3 -->
  <rect class="card" x="450" y="178" width="177" height="118" rx="10"/>
  <circle cx="485" cy="205" r="14" fill="#b45309"/>
  <text class="num" x="485" y="210" text-anchor="middle">3</text>
  <text class="nodehead" x="538" y="210" text-anchor="middle" fill="#b45309">Evaluar con</text>
  <text class="nodehead" x="538" y="228" text-anchor="middle" fill="#b45309">validación cruzada</text>
  <text class="desc2" x="538" y="256" text-anchor="middle">Estima la generalización</text>
  <text class="desc2" x="538" y="273" text-anchor="middle">en pliegues retenidos.</text>

  <!-- Nodo 4 -->
  <rect class="card" x="645" y="178" width="177" height="118" rx="10"/>
  <circle cx="680" cy="205" r="14" fill="#15803d"/>
  <text class="num" x="680" y="210" text-anchor="middle">4</text>
  <text class="nodehead" x="733" y="210" text-anchor="middle" fill="#15803d">Clasificar por</text>
  <text class="nodehead" x="733" y="228" text-anchor="middle" fill="#15803d">métrica principal</text>
  <text class="desc2" x="733" y="256" text-anchor="middle">Actualiza la tabla de</text>
  <text class="desc2" x="733" y="273" text-anchor="middle">candidatos hasta ahora.</text>

  <!-- Mejor modelo -->
  <rect x="840" y="178" width="140" height="118" rx="10" fill="#0f172a"/>
  <text class="nodehead" x="910" y="222" text-anchor="middle" fill="#ffffff" font-size="15">Mejor modelo</text>
  <text class="nodehead" x="910" y="242" text-anchor="middle" fill="#ffffff" font-size="15">/ ensamble</text>
  <text class="desc2" x="910" y="268" text-anchor="middle" fill="#cbd5e1">Cima de la tabla</text>

  <!-- bucle -->
  <path class="loop" d="M733,296 L733,360 L148,360 L148,300" marker-end="url(#aho)"/>
  <text class="looptxt" x="440" y="383" text-anchor="middle">Repetir: prueba el siguiente algoritmo / configuración hasta agotar el presupuesto</text>
</svg>
