<svg xmlns="http://www.w3.org/2000/svg" width="1040" height="720" viewBox="0 0 1040 720" role="img" aria-labelledby="title desc">
  <title id="title">Llamada a un endpoint de modelo desplegado</title>
  <desc id="desc">Un cliente envía un HTTP POST JSON con características a un endpoint en línea de Azure ML; el script de puntuación carga el modelo una vez y devuelve una predicción y probabilidad en JSON.</desc>

  <defs>
    <style>
      .bg { fill: #f7fafc; }
      .title { fill: #0f172a; font-family: Segoe UI, Arial, sans-serif; font-size: 30px; font-weight: 700; }
      .subtitle { fill: #334155; font-family: Segoe UI, Arial, sans-serif; font-size: 16px; }
      .card { fill: #ffffff; stroke: #cbd5e1; stroke-width: 1.5; }
      .endpoint { fill: #eef4fb; stroke: #004a99; stroke-width: 2; }
      .head { font-family: Segoe UI, Arial, sans-serif; font-size: 18px; font-weight: 700; fill: #0f172a; }
      .headw { font-family: Segoe UI, Arial, sans-serif; font-size: 18px; font-weight: 700; fill: #ffffff; }
      .mono { font-family: Consolas, "Courier New", monospace; font-size: 13px; fill: #1f2937; }
      .monosm { font-family: Consolas, "Courier New", monospace; font-size: 12px; fill: #334155; }
      .label { font-family: Segoe UI, Arial, sans-serif; font-size: 13px; fill: #475569; }
      .pill { fill: #004a99; }
      .pillg { fill: #0f766e; }
      .arrow { stroke: #004a99; stroke-width: 3; fill: none; }
      .arrowback { stroke: #0f766e; stroke-width: 3; fill: none; }
    </style>
    <marker id="ablue" markerWidth="10" markerHeight="10" refX="8" refY="5" orient="auto">
      <path d="M0,0 L10,5 L0,10 z" fill="#004a99"/>
    </marker>
    <marker id="agreen" markerWidth="10" markerHeight="10" refX="8" refY="5" orient="auto">
      <path d="M0,0 L10,5 L0,10 z" fill="#0f766e"/>
    </marker>
  </defs>

  <rect class="bg" x="0" y="0" width="1040" height="720"/>
  <text class="title" x="60" y="52">Llamada a un endpoint de modelo desplegado</text>
  <text class="subtitle" x="60" y="80">HTTP POST con características JSON de entrada, predicción JSON de salida</text>

  <!-- Client -->
  <rect class="card" x="60" y="120" width="250" height="120" rx="12"/>
  <rect class="pill" x="60" y="120" width="250" height="34" rx="12"/>
  <text class="headw" x="80" y="144">Aplicación cliente</text>
  <text class="label" x="80" y="178">Web / móvil / servicio</text>
  <text class="monosm" x="80" y="202">POST /score</text>
  <text class="monosm" x="80" y="222">Authorization: Bearer key</text>

  <!-- Endpoint -->
  <rect class="endpoint" x="395" y="110" width="250" height="240" rx="12"/>
  <rect class="pill" x="395" y="110" width="250" height="34" rx="12"/>
  <text class="headw" x="415" y="134">Endpoint en línea</text>
  <text class="label" x="415" y="170">fraud-endpoint (HTTPS)</text>
  <text class="monosm" x="415" y="196">Verificación de auth + esquema</text>
  <text class="monosm" x="415" y="218">Balanceo de carga a réplica</text>

  <!-- scoring script inside -->
  <rect class="card" x="415" y="236" width="210" height="96" rx="8"/>
  <text class="head" x="430" y="262" font-size="15">score.py</text>
  <text class="monosm" x="430" y="286">init() carga el modelo una vez</text>
  <text class="monosm" x="430" y="308">run() predice por solicitud</text>

  <!-- Model registry -->
  <rect class="card" x="730" y="120" width="250" height="120" rx="12"/>
  <rect class="pillg" x="730" y="120" width="250" height="34" rx="12"/>
  <text class="headw" x="750" y="144">Modelo registrado</text>
  <text class="label" x="750" y="178">azureml:fraud-model:3</text>
  <text class="monosm" x="750" y="202">artefacto joblib + entorno</text>
  <text class="monosm" x="750" y="222">versionado, reproducible</text>

  <!-- Arrows -->
  <path class="arrow" d="M312,170 L390,180" marker-end="url(#ablue)"/>
  <text class="mono" x="318" y="160" fill="#004a99" font-size="12">solicitud</text>
  <path class="arrowback" d="M390,300 L314,212" marker-end="url(#agreen)"/>
  <text class="mono" x="300" y="270" fill="#0f766e" font-size="12">respuesta</text>
  <path class="arrow" d="M647,180 L726,180" marker-end="url(#ablue)"/>
  <text class="mono" x="652" y="170" fill="#004a99" font-size="12">carga (init)</text>

  <!-- Request panel -->
  <rect class="card" x="60" y="390" width="440" height="290" rx="12"/>
  <rect class="pill" x="60" y="390" width="440" height="34" rx="12"/>
  <text class="headw" x="80" y="414">Cuerpo de la solicitud (JSON)</text>
  <text class="mono" x="80" y="450">{</text>
  <text class="mono" x="100" y="472">"features": [</text>
  <text class="mono" x="120" y="494">[0.21, 1.4, 0.0, 7, 1, 0.55],</text>
  <text class="mono" x="120" y="516">[1.02, 0.3, 2.1, 2, 0, 0.10]</text>
  <text class="mono" x="100" y="538">]</text>
  <text class="mono" x="80" y="560">}</text>
  <text class="label" x="80" y="600">Cada fila = características de una transacción,</text>
  <text class="label" x="80" y="622">en el orden exacto de columnas de entrenamiento.</text>
  <text class="monosm" x="80" y="654">Content-Type: application/json</text>

  <!-- Response panel -->
  <rect class="card" x="540" y="390" width="440" height="290" rx="12"/>
  <rect class="pillg" x="540" y="390" width="440" height="34" rx="12"/>
  <text class="headw" x="560" y="414">Cuerpo de la respuesta (JSON)</text>
  <text class="mono" x="560" y="450">{</text>
  <text class="mono" x="580" y="472">"prediction": [1, 0],</text>
  <text class="mono" x="580" y="494">"probability": [</text>
  <text class="mono" x="600" y="516">[0.08, 0.92],</text>
  <text class="mono" x="600" y="538">[0.86, 0.14]</text>
  <text class="mono" x="580" y="560">]</text>
  <text class="mono" x="560" y="582">}</text>
  <text class="label" x="560" y="616">Fila 1: clase 1 (fraude), 92% de confianza.</text>
  <text class="label" x="560" y="638">Fila 2: clase 0 (legítima), 86% de confianza.</text>
  <text class="monosm" x="560" y="666">HTTP 200 OK</text>
</svg>
