<svg xmlns="http://www.w3.org/2000/svg" width="1040" height="560" viewBox="0 0 1040 560" role="img" aria-labelledby="title desc">
  <title id="title">La distribución gaussiana y la regla empírica</title>
  <desc id="desc">Una curva de campana normal centrada en la media mu, con el eje x marcado desde mu menos dos sigma hasta mu más dos sigma y regiones sombreadas que muestran la regla empírica del 68, 95 y 99.7 por ciento.</desc>
  <defs>
    <style>
      .bg { fill: #f7fafc; }
      .title { fill: #0f172a; font-family: Segoe UI, Arial, sans-serif; font-size: 28px; font-weight: 700; }
      .subtitle { fill: #334155; font-family: Segoe UI, Arial, sans-serif; font-size: 15px; }
      .axis { stroke: #0f172a; stroke-width: 3; }
      .label { font-family: Segoe UI, Arial, sans-serif; font-size: 14px; fill: #1f2937; }
      .axislabel { font-family: Segoe UI, Arial, sans-serif; font-size: 14px; font-weight: 700; fill: #0f172a; }
      .desc2 { font-family: Segoe UI, Arial, sans-serif; font-size: 14px; fill: #475569; }
      .meas { stroke: #475569; stroke-width: 2; fill: none; }
      .opt { stroke: #475569; stroke-width: 2; stroke-dasharray: 6 6; }
    </style>
    <marker id="ah" markerWidth="9" markerHeight="9" refX="7" refY="4.5" orient="auto">
      <path d="M0,0 L9,4.5 L0,9 z" fill="#475569"/>
    </marker>
  </defs>
  <rect class="bg" x="0" y="0" width="1040" height="560"/>
  <text class="title" x="60" y="52">La distribución gaussiana y la regla empírica</text>
  <text class="subtitle" x="60" y="80">Cerca del 68% de los valores cae dentro de ±1σ de la media, el 95% en ±2σ y el 99.7% en ±3σ.</text>

  <!-- regiones sombreadas (de la más ancha a la más estrecha) -->
  <path d="M150,440 L150,437 C200,432 240,410 280,402 L280,440 Z" fill="#b45309" fill-opacity="0.18"/>
  <path d="M800,440 L800,402 C840,410 880,432 930,437 L930,440 Z" fill="#b45309" fill-opacity="0.18"/>
  <path d="M280,440 L280,402 C330,388 360,300 410,270 L410,440 Z" fill="#0e7490" fill-opacity="0.20"/>
  <path d="M670,440 L670,270 C720,300 750,388 800,402 L800,440 Z" fill="#0e7490" fill-opacity="0.20"/>
  <path d="M410,440 L410,270 C455,235 500,160 540,160 C580,160 625,235 670,270 L670,440 Z" fill="#15803d" fill-opacity="0.22"/>

  <!-- curva de campana -->
  <path d="M150,437 C200,432 240,410 280,402 C330,388 360,300 410,270 C455,235 500,160 540,160 C580,160 625,235 670,270 C720,300 750,388 800,402 C840,410 880,432 930,437" fill="none" stroke="#004a99" stroke-width="4"/>

  <!-- eje -->
  <line class="axis" x1="120" y1="440" x2="960" y2="440"/>

  <!-- línea de la media -->
  <line class="opt" x1="540" y1="440" x2="540" y2="155"/>
  <circle cx="540" cy="440" r="5" fill="#15803d"/>

  <!-- marcas -->
  <line class="axis" x1="280" y1="440" x2="280" y2="450"/>
  <line class="axis" x1="410" y1="440" x2="410" y2="450"/>
  <line class="axis" x1="540" y1="440" x2="540" y2="450"/>
  <line class="axis" x1="670" y1="440" x2="670" y2="450"/>
  <line class="axis" x1="800" y1="440" x2="800" y2="450"/>
  <text class="axislabel" x="280" y="470" text-anchor="middle">μ−2σ</text>
  <text class="axislabel" x="410" y="470" text-anchor="middle">μ−σ</text>
  <text class="axislabel" x="540" y="470" text-anchor="middle">μ</text>
  <text class="axislabel" x="670" y="470" text-anchor="middle">μ+σ</text>
  <text class="axislabel" x="800" y="470" text-anchor="middle">μ+2σ</text>

  <!-- etiqueta de la media -->
  <text class="label" x="540" y="148" text-anchor="middle" font-weight="700" fill="#15803d">μ = media</text>

  <!-- medida de sigma -->
  <line class="meas" x1="540" y1="225" x2="670" y2="225" marker-start="url(#ah)" marker-end="url(#ah)"/>
  <text class="label" x="605" y="217" text-anchor="middle" font-weight="700">σ (desv. típica)</text>

  <!-- leyenda -->
  <rect x="250" y="505" width="16" height="16" rx="3" fill="#15803d" fill-opacity="0.6"/>
  <text class="desc2" x="272" y="518">68% (±1σ)</text>
  <rect x="430" y="505" width="16" height="16" rx="3" fill="#0e7490" fill-opacity="0.6"/>
  <text class="desc2" x="452" y="518">95% (±2σ)</text>
  <rect x="620" y="505" width="16" height="16" rx="3" fill="#b45309" fill-opacity="0.6"/>
  <text class="desc2" x="642" y="518">99.7% (±3σ)</text>
</svg>
