<svg xmlns="http://www.w3.org/2000/svg" width="1040" height="560" viewBox="0 0 1040 560" role="img" aria-labelledby="title desc">
  <title id="title">Curvas de lift — buena vs mala</title>
  <desc id="desc">Dos curvas de lift acumulado sobre los mismos ejes: un buen modelo que se pega a la esquina superior izquierda y captura la mayoría de los positivos en la fracción mejor puntuada, y un modelo débil que sigue la diagonal de la selección aleatoria.</desc>
  <defs>
    <style>
      .bg { fill: #f7fafc; }
      .title { fill: #0f172a; font-family: Segoe UI, Arial, sans-serif; font-size: 28px; font-weight: 700; }
      .subtitle { fill: #334155; font-family: Segoe UI, Arial, sans-serif; font-size: 15px; }
      .card { fill: #ffffff; stroke: #cbd5e1; stroke-width: 1.5; }
      .cardhead { font-family: Segoe UI, Arial, sans-serif; font-size: 18px; font-weight: 700; }
      .axislbl { font-family: Segoe UI, Arial, sans-serif; font-size: 15px; font-weight: 700; fill: #0f172a; }
      .tick { font-family: Segoe UI, Arial, sans-serif; font-size: 12px; fill: #64748b; }
      .label { font-family: Segoe UI, Arial, sans-serif; font-size: 14px; font-weight: 700; fill: #1f2937; }
      .desc2 { font-family: Segoe UI, Arial, sans-serif; font-size: 13px; fill: #475569; }
      .axis { stroke: #0f172a; stroke-width: 3; }
      .grid { stroke: #e2e8f0; stroke-width: 1; }
      .good { stroke: #0e7490; stroke-width: 4; fill: none; stroke-linecap: round; }
      .bad { stroke: #b45309; stroke-width: 4; fill: none; stroke-linecap: round; }
      .ref { stroke: #94a3b8; stroke-width: 2.5; stroke-dasharray: 6 6; fill: none; }
    </style>
  </defs>
  <rect class="bg" x="0" y="0" width="1040" height="560"/>
  <text class="title" x="60" y="52">Curvas de lift — buena vs mala</text>
  <text class="subtitle" x="60" y="80">Un buen modelo captura la mayoría de positivos en la fracción mejor puntuada; uno débil es aleatorio.</text>

  <!-- Tarjeta del gráfico -->
  <rect class="card" x="100" y="108" width="560" height="432" rx="12"/>

  <!-- Cuadrícula -->
  <line class="grid" x1="160" y1="300" x2="640" y2="300"/>
  <line class="grid" x1="400" y1="130" x2="400" y2="470"/>

  <!-- Ejes -->
  <line class="axis" x1="160" y1="470" x2="640" y2="470"/>
  <line class="axis" x1="160" y1="470" x2="160" y2="130"/>

  <!-- Marcas -->
  <text class="tick" x="160" y="492" text-anchor="middle">0%</text>
  <text class="tick" x="400" y="492" text-anchor="middle">50%</text>
  <text class="tick" x="640" y="492" text-anchor="middle">100%</text>
  <text class="tick" x="150" y="475" text-anchor="end">0%</text>
  <text class="tick" x="150" y="305" text-anchor="end">50%</text>
  <text class="tick" x="150" y="135" text-anchor="end">100%</text>

  <!-- Títulos de ejes -->
  <text class="axislbl" x="400" y="522" text-anchor="middle">Fracción de la población (ordenada por score)</text>
  <text class="axislbl" x="124" y="300" text-anchor="middle" transform="rotate(-90 124 300)">Positivos acumulados capturados</text>

  <!-- Referencia aleatoria -->
  <line class="ref" x1="160" y1="470" x2="640" y2="130"/>

  <!-- Curva mala (cerca de la diagonal) -->
  <path class="bad" d="M160,470 C220,430 304,348 360,310 C430,262 540,190 640,130"/>
  <!-- Curva buena (pegada arriba a la izquierda) -->
  <path class="good" d="M160,470 C186,330 200,300 240,250 C300,180 360,156 420,144 C500,132 560,130 640,130"/>

  <!-- Leyenda / cómo leerla -->
  <rect class="card" x="700" y="150" width="280" height="346" rx="10"/>
  <rect x="700" y="150" width="280" height="40" rx="10" fill="#004a99"/>
  <rect x="700" y="170" width="280" height="20" fill="#004a99"/>
  <text class="cardhead" x="722" y="177" fill="#ffffff">Cómo leerla</text>

  <line x1="722" y1="226" x2="762" y2="226" stroke="#0e7490" stroke-width="4" stroke-linecap="round"/>
  <text class="label" x="772" y="231" fill="#0e7490">Buen modelo</text>
  <text class="desc2" x="722" y="254">Sube rápido y se estabiliza cerca de 100%.</text>
  <text class="desc2" x="722" y="274">El 20% superior tiene casi todos los positivos.</text>

  <line x1="722" y1="316" x2="762" y2="316" stroke="#b45309" stroke-width="4" stroke-linecap="round"/>
  <text class="label" x="772" y="321" fill="#b45309">Modelo débil</text>
  <text class="desc2" x="722" y="344">Sigue la línea diagonal.</text>
  <text class="desc2" x="722" y="364">Sin ventaja de focalización.</text>

  <line x1="722" y1="406" x2="762" y2="406" stroke="#94a3b8" stroke-width="2.5" stroke-dasharray="6 6"/>
  <text class="label" x="772" y="411" fill="#64748b">Línea base aleatoria</text>
  <text class="desc2" x="722" y="434">Lift = 1 en todo punto.</text>

  <rect x="716" y="452" width="248" height="32" rx="8" fill="#eef2f7"/>
  <text class="desc2" x="728" y="473">Mayor brecha sobre la diagonal = más lift.</text>
</svg>
